<svg xmlns="http://www.w3.org/2000/svg" viewBox="0 0 1980 1618" width="1980" height="1618" font-family="Helvetica, Arial, sans-serif">
<rect width="1980" height="1618" fill="#0b0d12"/>
<text x="990.0" y="46" text-anchor="middle" font-size="30" font-weight="700" fill="#e5e7eb">haptic_audio_player – wiring (PocketBeagle 2)</text>
<text x="990.0" y="76" text-anchor="middle" font-size="16" fill="#9aa3b2">all signals 3.3 V · pin functions from the official PB2 pin table · generated by hw/generate-wiring-diagram.py</text>
<text x="990.0" y="102" text-anchor="middle" font-size="15" fill="#ec4899">The Voice Bonnet is a Raspberry-Pi HAT: it has a 40-pin socket, the PocketBeagle 2 does not – connect the pads with jumper wires.</text>
<rect x="730" y="130" width="520" height="1068" rx="22" fill="#1f2430" stroke="#3b4252" stroke-width="3"/>
<text x="990.0" y="168" text-anchor="middle" font-size="24" font-weight="700" fill="#e5e7eb">PocketBeagle 2</text>
<text x="990.0" y="190" text-anchor="middle" font-size="14" fill="#9aa3b2">AM6232 · P1 / P2 headers (used pins only)</text>
<rect x="930.0" y="634.0" width="120" height="60" rx="8" fill="#111318" stroke="#5b6472" stroke-width="2"/>
<text x="990.0" y="669.0" text-anchor="middle" font-size="15" fill="#9aa3b2">AM6232</text>
<rect x="956.0" y="1190" width="68" height="16" rx="4" fill="#c7cdd6" stroke="#4b5563" stroke-width="2"/>
<text x="990.0" y="1230" text-anchor="middle" font-size="14" fill="#e5e7eb">USB-C  ←  USB powerbank (5 V)</text>
<path d="M730,228 C605.0,228 605.0,228 480,228" fill="none" stroke="#c084fc" stroke-width="3"/>
<path d="M730,260 C605.0,260 605.0,260 480,260" fill="none" stroke="#c084fc" stroke-width="3"/>
<path d="M730,292 C605.0,292 605.0,292 480,292" fill="none" stroke="#c084fc" stroke-width="3"/>
<path d="M730,324 C605.0,324 605.0,324 480,324" fill="none" stroke="#c084fc" stroke-width="3"/>
<path d="M730,356 C605.0,356 605.0,356 480,356" fill="none" stroke="#ec4899" stroke-width="4" stroke-dasharray="7,5"/>
<path d="M730,388 C605.0,388 605.0,388 480,388" fill="none" stroke="#dc2626" stroke-width="4"/>
<path d="M730,420 C605.0,420 605.0,420 480,420" fill="none" stroke="#6b7280" stroke-width="4"/>
<path d="M730,452 C605.0,452 605.0,452 480,452" fill="none" stroke="#22d3ee" stroke-width="3"/>
<path d="M730,484 C605.0,484 605.0,484 480,484" fill="none" stroke="#22d3ee" stroke-width="3"/>
<path d="M730,388 C605.0,388 605.0,695 480,695" fill="none" stroke="#dc2626" stroke-width="4"/>
<path d="M730,420 C605.0,420 605.0,727 480,727" fill="none" stroke="#6b7280" stroke-width="4"/>
<path d="M730,452 C605.0,452 605.0,759 480,759" fill="none" stroke="#22d3ee" stroke-width="3"/>
<path d="M730,484 C605.0,484 605.0,791 480,791" fill="none" stroke="#22d3ee" stroke-width="3"/>
<path d="M730,356 C605.0,356 605.0,983 480,983" fill="none" stroke="#ec4899" stroke-width="4" stroke-dasharray="7,5"/>
<path d="M730,1015 C605.0,1015 605.0,1015 480,1015" fill="none" stroke="#60a5fa" stroke-width="3"/>
<path d="M730,1047 C605.0,1047 605.0,1047 480,1047" fill="none" stroke="#60a5fa" stroke-width="3"/>
<path d="M730,420 C605.0,420 605.0,1079 480,1079" fill="none" stroke="#6b7280" stroke-width="4"/>
<path d="M1250,228 C1375.0,228 1375.0,228 1500,228" fill="none" stroke="#dc2626" stroke-width="4"/>
<path d="M1250,260 C1375.0,260 1375.0,260 1500,260" fill="none" stroke="#6b7280" stroke-width="4"/>
<path d="M1250,292 C1375.0,292 1375.0,292 1500,292" fill="none" stroke="#fb923c" stroke-width="3"/>
<path d="M1250,324 C1375.0,324 1375.0,324 1500,324" fill="none" stroke="#fb923c" stroke-width="3"/>
<path d="M1250,356 C1375.0,356 1375.0,356 1500,356" fill="none" stroke="#fb923c" stroke-width="3"/>
<path d="M1250,388 C1375.0,388 1375.0,388 1500,388" fill="none" stroke="#facc15" stroke-width="3"/>
<path d="M1250,420 C1375.0,420 1375.0,420 1500,420" fill="none" stroke="#facc15" stroke-width="3"/>
<path d="M1250,452 C1375.0,452 1375.0,452 1500,452" fill="none" stroke="#facc15" stroke-width="3"/>
<path d="M1250,484 C1375.0,484 1375.0,484 1500,484" fill="none" stroke="#facc15" stroke-width="3"/>
<path d="M1250,516 C1375.0,516 1375.0,516 1500,516" fill="none" stroke="#facc15" stroke-width="3"/>
<path d="M1250,727 C1375.0,727 1375.0,727 1500,727" fill="none" stroke="#a3e635" stroke-width="3"/>
<path d="M1250,759 C1375.0,759 1375.0,759 1500,759" fill="none" stroke="#a3e635" stroke-width="3"/>
<path d="M1250,791 C1375.0,791 1375.0,791 1500,791" fill="none" stroke="#a3e635" stroke-width="3"/>
<path d="M1250,823 C1375.0,823 1375.0,823 1500,823" fill="none" stroke="#a3e635" stroke-width="3"/>
<path d="M1250,1018 C1375.0,1018 1375.0,1018 1500,1018" fill="none" stroke="#9ca3af" stroke-width="3"/>
<rect x="40" y="150" width="440" height="433" rx="12" fill="#1f2430" stroke="#3b4252" stroke-width="2"/>
<text x="56" y="178" font-size="18" font-weight="700" fill="#e5e7eb">Adafruit Voice Bonnet</text>
<text x="56" y="198" font-size="13" fill="#9aa3b2">WM8960 codec - Raspberry Pi HAT, wired by jumpers</text>
<circle cx="480" cy="228" r="7" fill="#c084fc" stroke="#05060a" stroke-width="1.5"/>
<text x="462" y="233" text-anchor="end" font-size="15" fill="#e5e7eb">GPIO18  BCLK   (pin 12)</text>
<circle cx="480" cy="260" r="7" fill="#c084fc" stroke="#05060a" stroke-width="1.5"/>
<text x="462" y="265" text-anchor="end" font-size="15" fill="#e5e7eb">GPIO19  LRCLK  (pin 35)</text>
<circle cx="480" cy="292" r="7" fill="#c084fc" stroke="#05060a" stroke-width="1.5"/>
<text x="462" y="297" text-anchor="end" font-size="15" fill="#e5e7eb">GPIO21  DOUT -&gt; DAC  (pin 40)</text>
<circle cx="480" cy="324" r="7" fill="#c084fc" stroke="#05060a" stroke-width="1.5"/>
<text x="462" y="329" text-anchor="end" font-size="15" fill="#e5e7eb">GPIO20  DIN &lt;- ADC  (pin 38)</text>
<circle cx="480" cy="356" r="7" fill="#ec4899" stroke="#05060a" stroke-width="1.5"/>
<text x="462" y="361" text-anchor="end" font-size="15" fill="#e5e7eb">5V  (pin 2/4)</text>
<circle cx="480" cy="388" r="7" fill="#dc2626" stroke="#05060a" stroke-width="1.5"/>
<text x="462" y="393" text-anchor="end" font-size="15" fill="#e5e7eb">3V3  (pin 1)</text>
<circle cx="480" cy="420" r="7" fill="#6b7280" stroke="#05060a" stroke-width="1.5"/>
<text x="462" y="425" text-anchor="end" font-size="15" fill="#e5e7eb">GND  (pin 6)</text>
<circle cx="480" cy="452" r="7" fill="#22d3ee" stroke="#05060a" stroke-width="1.5"/>
<text x="462" y="457" text-anchor="end" font-size="15" fill="#e5e7eb">SDA  (pin 3)</text>
<circle cx="480" cy="484" r="7" fill="#22d3ee" stroke="#05060a" stroke-width="1.5"/>
<text x="462" y="489" text-anchor="end" font-size="15" fill="#e5e7eb">SCL  (pin 5)</text>
<text x="56" y="516" font-size="13" fill="#9aa3b2">privacy switch must be ON - it gates the codec's MCLK oscillator</text>
<text x="56" y="535" font-size="13" fill="#9aa3b2">speakers: JST-PH L/R  -  headphones: 3.5 mm jack</text>
<text x="56" y="554" font-size="13" fill="#9aa3b2">I2C address 0x1A</text>
<rect x="40" y="617" width="440" height="254" rx="12" fill="#1f2430" stroke="#3b4252" stroke-width="2"/>
<text x="56" y="645" font-size="18" font-weight="700" fill="#e5e7eb">PN532 NFC kit (I2C mode)</text>
<text x="56" y="665" font-size="13" fill="#9aa3b2">DIP switches: I2C (check silkscreen)</text>
<circle cx="480" cy="695" r="7" fill="#dc2626" stroke="#05060a" stroke-width="1.5"/>
<text x="462" y="700" text-anchor="end" font-size="15" fill="#e5e7eb">VCC (3.3 V)</text>
<circle cx="480" cy="727" r="7" fill="#6b7280" stroke="#05060a" stroke-width="1.5"/>
<text x="462" y="732" text-anchor="end" font-size="15" fill="#e5e7eb">GND</text>
<circle cx="480" cy="759" r="7" fill="#22d3ee" stroke="#05060a" stroke-width="1.5"/>
<text x="462" y="764" text-anchor="end" font-size="15" fill="#e5e7eb">SDA</text>
<circle cx="480" cy="791" r="7" fill="#22d3ee" stroke="#05060a" stroke-width="1.5"/>
<text x="462" y="796" text-anchor="end" font-size="15" fill="#e5e7eb">SCL</text>
<text x="56" y="823" font-size="13" fill="#9aa3b2">I2C address 0x24 - shares I2C2 with the codec</text>
<text x="56" y="842" font-size="13" fill="#9aa3b2">IRQ / RSTO not connected (polled)</text>
<rect x="40" y="905" width="440" height="273" rx="12" fill="#1f2430" stroke="#3b4252" stroke-width="2"/>
<text x="56" y="933" font-size="18" font-weight="700" fill="#e5e7eb">USB-A socket (data stick)</text>
<text x="56" y="953" font-size="13" fill="#9aa3b2">usb1 host - music, recordings, tags, config</text>
<circle cx="480" cy="983" r="7" fill="#ec4899" stroke="#05060a" stroke-width="1.5"/>
<text x="462" y="988" text-anchor="end" font-size="15" fill="#e5e7eb">VBUS 5 V</text>
<circle cx="480" cy="1015" r="7" fill="#60a5fa" stroke="#05060a" stroke-width="1.5"/>
<text x="462" y="1020" text-anchor="end" font-size="15" fill="#e5e7eb">D-</text>
<circle cx="480" cy="1047" r="7" fill="#60a5fa" stroke="#05060a" stroke-width="1.5"/>
<text x="462" y="1052" text-anchor="end" font-size="15" fill="#e5e7eb">D+</text>
<circle cx="480" cy="1079" r="7" fill="#6b7280" stroke="#05060a" stroke-width="1.5"/>
<text x="462" y="1084" text-anchor="end" font-size="15" fill="#e5e7eb">GND</text>
<text x="56" y="1111" font-size="13" fill="#9aa3b2">stick = FAT32, label HAPTIC (plugs into the PB2's usb1 host)</text>
<text x="56" y="1130" font-size="13" fill="#9aa3b2">keep D+/D- short and twisted; stick draws up to ~100-500 mA</text>
<text x="56" y="1149" font-size="13" fill="#9aa3b2">check P1.03 / P1.05 (DRVVBUS / VBUS) against the PB2 schematic</text>
<rect x="1500" y="150" width="440" height="465" rx="12" fill="#1f2430" stroke="#3b4252" stroke-width="2"/>
<text x="1516" y="178" font-size="18" font-weight="700" fill="#e5e7eb">Waveshare 2.8" LCD (ST7789 + CST328)</text>
<text x="1516" y="198" font-size="13" fill="#9aa3b2">optional - 240x320, 3.3 V logic</text>
<circle cx="1500" cy="228" r="7" fill="#dc2626" stroke="#05060a" stroke-width="1.5"/>
<text x="1518" y="233" font-size="15" fill="#e5e7eb">VCC (3.3 V)</text>
<circle cx="1500" cy="260" r="7" fill="#6b7280" stroke="#05060a" stroke-width="1.5"/>
<text x="1518" y="265" font-size="15" fill="#e5e7eb">GND</text>
<circle cx="1500" cy="292" r="7" fill="#fb923c" stroke="#05060a" stroke-width="1.5"/>
<text x="1518" y="297" font-size="15" fill="#e5e7eb">MOSI</text>
<circle cx="1500" cy="324" r="7" fill="#fb923c" stroke="#05060a" stroke-width="1.5"/>
<text x="1518" y="329" font-size="15" fill="#e5e7eb">SCLK</text>
<circle cx="1500" cy="356" r="7" fill="#fb923c" stroke="#05060a" stroke-width="1.5"/>
<text x="1518" y="361" font-size="15" fill="#e5e7eb">LCD_CS</text>
<circle cx="1500" cy="388" r="7" fill="#facc15" stroke="#05060a" stroke-width="1.5"/>
<text x="1518" y="393" font-size="15" fill="#e5e7eb">LCD_DC</text>
<circle cx="1500" cy="420" r="7" fill="#facc15" stroke="#05060a" stroke-width="1.5"/>
<text x="1518" y="425" font-size="15" fill="#e5e7eb">LCD_RST</text>
<circle cx="1500" cy="452" r="7" fill="#facc15" stroke="#05060a" stroke-width="1.5"/>
<text x="1518" y="457" font-size="15" fill="#e5e7eb">LCD_BL</text>
<circle cx="1500" cy="484" r="7" fill="#facc15" stroke="#05060a" stroke-width="1.5"/>
<text x="1518" y="489" font-size="15" fill="#e5e7eb">TP_INT</text>
<circle cx="1500" cy="516" r="7" fill="#facc15" stroke="#05060a" stroke-width="1.5"/>
<text x="1518" y="521" font-size="15" fill="#e5e7eb">TP_RST</text>
<text x="1516" y="548" font-size="13" fill="#9aa3b2">TP_SDA / TP_SCL: not connected (v1). The CST328 sits at</text>
<text x="1516" y="567" font-size="13" fill="#9aa3b2">0x1A like the codec -&gt; needs its own bus (I2C1);</text>
<text x="1516" y="586" font-size="13" fill="#9aa3b2">touch is not implemented yet</text>
<rect x="1500" y="649" width="440" height="257" rx="12" fill="#1f2430" stroke="#3b4252" stroke-width="2"/>
<text x="1516" y="677" font-size="18" font-weight="700" fill="#e5e7eb">Push buttons (4x)</text>
<text x="1516" y="697" font-size="13" fill="#9aa3b2">one leg to the pin, other leg to GND</text>
<circle cx="1500" cy="727" r="7" fill="#a3e635" stroke="#05060a" stroke-width="1.5"/>
<text x="1518" y="732" font-size="15" fill="#e5e7eb">play / pause  (long: stop)</text>
<circle cx="1500" cy="759" r="7" fill="#a3e635" stroke="#05060a" stroke-width="1.5"/>
<text x="1518" y="764" font-size="15" fill="#e5e7eb">record  (start / stop)</text>
<circle cx="1500" cy="791" r="7" fill="#a3e635" stroke="#05060a" stroke-width="1.5"/>
<text x="1518" y="796" font-size="15" fill="#e5e7eb">prev  (long: volume -)</text>
<circle cx="1500" cy="823" r="7" fill="#a3e635" stroke="#05060a" stroke-width="1.5"/>
<text x="1518" y="828" font-size="15" fill="#e5e7eb">next  (long: volume +)</text>
<text x="1516" y="861" font-size="13" fill="#9aa3b2">other leg of every button -&gt; GND (P2.15)</text>
<rect x="1500" y="940" width="440" height="139" rx="12" fill="#1f2430" stroke="#3b4252" stroke-width="2"/>
<text x="1516" y="968" font-size="18" font-weight="700" fill="#e5e7eb">On/off button</text>
<text x="1516" y="988" font-size="13" fill="#9aa3b2">to GND = PMIC power button</text>
<circle cx="1500" cy="1018" r="7" fill="#9ca3af" stroke="#05060a" stroke-width="1.5"/>
<text x="1518" y="1023" font-size="15" fill="#e5e7eb">one leg</text>
<text x="1516" y="1050" font-size="13" fill="#9aa3b2">other leg -&gt; GND  (verify PWR.BTN behaviour on USB-C power)</text>
<circle cx="730" cy="228" r="8" fill="#c084fc" stroke="#05060a" stroke-width="1.5"/>
<text x="748" y="233" font-size="15" fill="#e5e7eb"><tspan font-weight="700">P2.01</tspan><tspan fill="#9aa3b2" dx="8">MCASP0_ACLKX  BCLK</tspan></text>
<circle cx="730" cy="260" r="8" fill="#c084fc" stroke="#05060a" stroke-width="1.5"/>
<text x="748" y="265" font-size="15" fill="#e5e7eb"><tspan font-weight="700">P1.04</tspan><tspan fill="#9aa3b2" dx="8">MCASP0_AFSX  LRCLK</tspan></text>
<circle cx="730" cy="292" r="8" fill="#c084fc" stroke="#05060a" stroke-width="1.5"/>
<text x="748" y="297" font-size="15" fill="#e5e7eb"><tspan font-weight="700">P1.02</tspan><tspan fill="#9aa3b2" dx="8">MCASP0_AXR0  DAC data</tspan></text>
<circle cx="730" cy="324" r="8" fill="#c084fc" stroke="#05060a" stroke-width="1.5"/>
<text x="748" y="329" font-size="15" fill="#e5e7eb"><tspan font-weight="700">P2.03A</tspan><tspan fill="#9aa3b2" dx="8">MCASP0_AXR1  ADC data</tspan></text>
<circle cx="730" cy="356" r="8" fill="#ec4899" stroke="#05060a" stroke-width="1.5"/>
<text x="748" y="361" font-size="15" fill="#e5e7eb"><tspan font-weight="700">P1.24</tspan><tspan fill="#9aa3b2" dx="8">VOUT 5 V</tspan></text>
<circle cx="730" cy="388" r="8" fill="#dc2626" stroke="#05060a" stroke-width="1.5"/>
<text x="748" y="393" font-size="15" fill="#e5e7eb"><tspan font-weight="700">P1.14</tspan><tspan fill="#9aa3b2" dx="8">VDD_3V3</tspan></text>
<circle cx="730" cy="420" r="8" fill="#6b7280" stroke="#05060a" stroke-width="1.5"/>
<text x="748" y="425" font-size="15" fill="#e5e7eb"><tspan font-weight="700">P1.15</tspan><tspan fill="#9aa3b2" dx="8">GND</tspan></text>
<circle cx="730" cy="452" r="8" fill="#22d3ee" stroke="#05060a" stroke-width="1.5"/>
<text x="748" y="457" font-size="15" fill="#e5e7eb"><tspan font-weight="700">P1.26</tspan><tspan fill="#9aa3b2" dx="8">I2C2_SDA</tspan></text>
<circle cx="730" cy="484" r="8" fill="#22d3ee" stroke="#05060a" stroke-width="1.5"/>
<text x="748" y="489" font-size="15" fill="#e5e7eb"><tspan font-weight="700">P1.28</tspan><tspan fill="#9aa3b2" dx="8">I2C2_SCL</tspan></text>
<circle cx="1250" cy="228" r="8" fill="#dc2626" stroke="#05060a" stroke-width="1.5"/>
<text x="1232" y="233" text-anchor="end" font-size="15" fill="#e5e7eb"><tspan fill="#9aa3b2">VDD_3V3</tspan><tspan font-weight="700" dx="8">P2.23</tspan></text>
<circle cx="1250" cy="260" r="8" fill="#6b7280" stroke="#05060a" stroke-width="1.5"/>
<text x="1232" y="265" text-anchor="end" font-size="15" fill="#e5e7eb"><tspan fill="#9aa3b2">GND</tspan><tspan font-weight="700" dx="8">P2.15</tspan></text>
<circle cx="1250" cy="292" r="8" fill="#fb923c" stroke="#05060a" stroke-width="1.5"/>
<text x="1232" y="297" text-anchor="end" font-size="15" fill="#e5e7eb"><tspan fill="#9aa3b2">SPI0_D1  MOSI</tspan><tspan font-weight="700" dx="8">P2.25</tspan></text>
<circle cx="1250" cy="324" r="8" fill="#fb923c" stroke="#05060a" stroke-width="1.5"/>
<text x="1232" y="329" text-anchor="end" font-size="15" fill="#e5e7eb"><tspan fill="#9aa3b2">SPI0_CLK</tspan><tspan font-weight="700" dx="8">P2.29</tspan></text>
<circle cx="1250" cy="356" r="8" fill="#fb923c" stroke="#05060a" stroke-width="1.5"/>
<text x="1232" y="361" text-anchor="end" font-size="15" fill="#e5e7eb"><tspan fill="#9aa3b2">SPI0_CS0</tspan><tspan font-weight="700" dx="8">P2.31</tspan></text>
<circle cx="1250" cy="388" r="8" fill="#facc15" stroke="#05060a" stroke-width="1.5"/>
<text x="1232" y="393" text-anchor="end" font-size="15" fill="#e5e7eb"><tspan fill="#9aa3b2">GPIO0_64  DC</tspan><tspan font-weight="700" dx="8">P2.17</tspan></text>
<circle cx="1250" cy="420" r="8" fill="#facc15" stroke="#05060a" stroke-width="1.5"/>
<text x="1232" y="425" text-anchor="end" font-size="15" fill="#e5e7eb"><tspan fill="#9aa3b2">GPIO0_53  RST</tspan><tspan font-weight="700" dx="8">P2.18</tspan></text>
<circle cx="1250" cy="452" r="8" fill="#facc15" stroke="#05060a" stroke-width="1.5"/>
<text x="1232" y="457" text-anchor="end" font-size="15" fill="#e5e7eb"><tspan fill="#9aa3b2">GPIO0_63  BL</tspan><tspan font-weight="700" dx="8">P2.22</tspan></text>
<circle cx="1250" cy="484" r="8" fill="#facc15" stroke="#05060a" stroke-width="1.5"/>
<text x="1232" y="489" text-anchor="end" font-size="15" fill="#e5e7eb"><tspan fill="#9aa3b2">GPIO0_51  TP_INT</tspan><tspan font-weight="700" dx="8">P2.24</tspan></text>
<circle cx="1250" cy="516" r="8" fill="#facc15" stroke="#05060a" stroke-width="1.5"/>
<text x="1232" y="521" text-anchor="end" font-size="15" fill="#e5e7eb"><tspan fill="#9aa3b2">GPIO0_61  TP_RST</tspan><tspan font-weight="700" dx="8">P2.28</tspan></text>
<circle cx="1250" cy="727" r="8" fill="#a3e635" stroke="#05060a" stroke-width="1.5"/>
<text x="1232" y="732" text-anchor="end" font-size="15" fill="#e5e7eb"><tspan fill="#9aa3b2">GPIO0_45  play/pause</tspan><tspan font-weight="700" dx="8">P2.02</tspan></text>
<circle cx="1250" cy="759" r="8" fill="#a3e635" stroke="#05060a" stroke-width="1.5"/>
<text x="1232" y="764" text-anchor="end" font-size="15" fill="#e5e7eb"><tspan fill="#9aa3b2">GPIO0_46  record</tspan><tspan font-weight="700" dx="8">P2.04</tspan></text>
<circle cx="1250" cy="791" r="8" fill="#a3e635" stroke="#05060a" stroke-width="1.5"/>
<text x="1232" y="796" text-anchor="end" font-size="15" fill="#e5e7eb"><tspan fill="#9aa3b2">GPIO0_47  prev</tspan><tspan font-weight="700" dx="8">P2.06</tspan></text>
<circle cx="1250" cy="823" r="8" fill="#a3e635" stroke="#05060a" stroke-width="1.5"/>
<text x="1232" y="828" text-anchor="end" font-size="15" fill="#e5e7eb"><tspan fill="#9aa3b2">GPIO0_48  next</tspan><tspan font-weight="700" dx="8">P2.08</tspan></text>
<circle cx="1250" cy="1018" r="8" fill="#9ca3af" stroke="#05060a" stroke-width="1.5"/>
<text x="1232" y="1023" text-anchor="end" font-size="15" fill="#e5e7eb"><tspan fill="#9aa3b2">PWR.BTN</tspan><tspan font-weight="700" dx="8">P2.12</tspan></text>
<circle cx="730" cy="1015" r="8" fill="#60a5fa" stroke="#05060a" stroke-width="1.5"/>
<text x="748" y="1020" font-size="15" fill="#e5e7eb"><tspan font-weight="700">P1.09</tspan><tspan fill="#9aa3b2" dx="8">USB1.D-</tspan></text>
<circle cx="730" cy="1047" r="8" fill="#60a5fa" stroke="#05060a" stroke-width="1.5"/>
<text x="748" y="1052" font-size="15" fill="#e5e7eb"><tspan font-weight="700">P1.11</tspan><tspan fill="#9aa3b2" dx="8">USB1.D+</tspan></text>
<text x="40" y="1252" font-size="20" font-weight="700" fill="#e5e7eb">Where the used pins are on the headers</text>
<text x="40" y="1274" font-size="13" fill="#9aa3b2">schematic strips (odd pins top row, even pins bottom row, not to scale) – always check pin 1 / numbering against the board silkscreen</text>
<text x="40" y="1346" font-size="20" font-weight="700" fill="#e5e7eb">P1</text>
<rect x="78" y="1304" width="1824" height="68" rx="8" fill="none" stroke="#5b6472" stroke-width="1.5"/>
<circle cx="100.0" cy="1322" r="5" fill="#5b6472"/>
<text x="100.0" y="1296" text-anchor="middle" font-size="11" fill="#5b6472">1</text>
<circle cx="100.0" cy="1354" r="9" fill="#c084fc" stroke="#05060a" stroke-width="1.5"/>
<text x="100.0" y="1380" text-anchor="middle" font-size="11" fill="#9aa3b2">2</text>
<circle cx="204.70588235294116" cy="1322" r="5" fill="#5b6472"/>
<text x="204.70588235294116" y="1296" text-anchor="middle" font-size="11" fill="#5b6472">3</text>
<circle cx="204.70588235294116" cy="1354" r="9" fill="#c084fc" stroke="#05060a" stroke-width="1.5"/>
<text x="204.70588235294116" y="1380" text-anchor="middle" font-size="11" fill="#9aa3b2">4</text>
<circle cx="309.4117647058823" cy="1322" r="5" fill="#5b6472"/>
<text x="309.4117647058823" y="1296" text-anchor="middle" font-size="11" fill="#5b6472">5</text>
<circle cx="309.4117647058823" cy="1354" r="5" fill="#5b6472"/>
<text x="309.4117647058823" y="1380" text-anchor="middle" font-size="11" fill="#5b6472">6</text>
<circle cx="414.11764705882354" cy="1322" r="5" fill="#5b6472"/>
<text x="414.11764705882354" y="1296" text-anchor="middle" font-size="11" fill="#5b6472">7</text>
<circle cx="414.11764705882354" cy="1354" r="5" fill="#5b6472"/>
<text x="414.11764705882354" y="1380" text-anchor="middle" font-size="11" fill="#5b6472">8</text>
<circle cx="518.8235294117646" cy="1322" r="9" fill="#60a5fa" stroke="#05060a" stroke-width="1.5"/>
<text x="518.8235294117646" y="1296" text-anchor="middle" font-size="11" fill="#9aa3b2">9</text>
<circle cx="518.8235294117646" cy="1354" r="5" fill="#5b6472"/>
<text x="518.8235294117646" y="1380" text-anchor="middle" font-size="11" fill="#5b6472">10</text>
<circle cx="623.5294117647059" cy="1322" r="9" fill="#60a5fa" stroke="#05060a" stroke-width="1.5"/>
<text x="623.5294117647059" y="1296" text-anchor="middle" font-size="11" fill="#9aa3b2">11</text>
<circle cx="623.5294117647059" cy="1354" r="5" fill="#5b6472"/>
<text x="623.5294117647059" y="1380" text-anchor="middle" font-size="11" fill="#5b6472">12</text>
<circle cx="728.2352941176471" cy="1322" r="5" fill="#5b6472"/>
<text x="728.2352941176471" y="1296" text-anchor="middle" font-size="11" fill="#5b6472">13</text>
<circle cx="728.2352941176471" cy="1354" r="9" fill="#dc2626" stroke="#05060a" stroke-width="1.5"/>
<text x="728.2352941176471" y="1380" text-anchor="middle" font-size="11" fill="#9aa3b2">14</text>
<circle cx="832.9411764705882" cy="1322" r="9" fill="#6b7280" stroke="#05060a" stroke-width="1.5"/>
<text x="832.9411764705882" y="1296" text-anchor="middle" font-size="11" fill="#9aa3b2">15</text>
<circle cx="832.9411764705882" cy="1354" r="5" fill="#5b6472"/>
<text x="832.9411764705882" y="1380" text-anchor="middle" font-size="11" fill="#5b6472">16</text>
<circle cx="937.6470588235294" cy="1322" r="5" fill="#5b6472"/>
<text x="937.6470588235294" y="1296" text-anchor="middle" font-size="11" fill="#5b6472">17</text>
<circle cx="937.6470588235294" cy="1354" r="5" fill="#5b6472"/>
<text x="937.6470588235294" y="1380" text-anchor="middle" font-size="11" fill="#5b6472">18</text>
<circle cx="1042.3529411764707" cy="1322" r="5" fill="#5b6472"/>
<text x="1042.3529411764707" y="1296" text-anchor="middle" font-size="11" fill="#5b6472">19</text>
<circle cx="1042.3529411764707" cy="1354" r="5" fill="#5b6472"/>
<text x="1042.3529411764707" y="1380" text-anchor="middle" font-size="11" fill="#5b6472">20</text>
<circle cx="1147.0588235294117" cy="1322" r="5" fill="#5b6472"/>
<text x="1147.0588235294117" y="1296" text-anchor="middle" font-size="11" fill="#5b6472">21</text>
<circle cx="1147.0588235294117" cy="1354" r="5" fill="#5b6472"/>
<text x="1147.0588235294117" y="1380" text-anchor="middle" font-size="11" fill="#5b6472">22</text>
<circle cx="1251.764705882353" cy="1322" r="5" fill="#5b6472"/>
<text x="1251.764705882353" y="1296" text-anchor="middle" font-size="11" fill="#5b6472">23</text>
<circle cx="1251.764705882353" cy="1354" r="9" fill="#ec4899" stroke="#05060a" stroke-width="1.5"/>
<text x="1251.764705882353" y="1380" text-anchor="middle" font-size="11" fill="#9aa3b2">24</text>
<circle cx="1356.4705882352941" cy="1322" r="5" fill="#5b6472"/>
<text x="1356.4705882352941" y="1296" text-anchor="middle" font-size="11" fill="#5b6472">25</text>
<circle cx="1356.4705882352941" cy="1354" r="9" fill="#22d3ee" stroke="#05060a" stroke-width="1.5"/>
<text x="1356.4705882352941" y="1380" text-anchor="middle" font-size="11" fill="#9aa3b2">26</text>
<circle cx="1461.1764705882354" cy="1322" r="5" fill="#5b6472"/>
<text x="1461.1764705882354" y="1296" text-anchor="middle" font-size="11" fill="#5b6472">27</text>
<circle cx="1461.1764705882354" cy="1354" r="9" fill="#22d3ee" stroke="#05060a" stroke-width="1.5"/>
<text x="1461.1764705882354" y="1380" text-anchor="middle" font-size="11" fill="#9aa3b2">28</text>
<circle cx="1565.8823529411764" cy="1322" r="5" fill="#5b6472"/>
<text x="1565.8823529411764" y="1296" text-anchor="middle" font-size="11" fill="#5b6472">29</text>
<circle cx="1565.8823529411764" cy="1354" r="5" fill="#5b6472"/>
<text x="1565.8823529411764" y="1380" text-anchor="middle" font-size="11" fill="#5b6472">30</text>
<circle cx="1670.5882352941176" cy="1322" r="5" fill="#5b6472"/>
<text x="1670.5882352941176" y="1296" text-anchor="middle" font-size="11" fill="#5b6472">31</text>
<circle cx="1670.5882352941176" cy="1354" r="5" fill="#5b6472"/>
<text x="1670.5882352941176" y="1380" text-anchor="middle" font-size="11" fill="#5b6472">32</text>
<circle cx="1775.2941176470588" cy="1322" r="5" fill="#5b6472"/>
<text x="1775.2941176470588" y="1296" text-anchor="middle" font-size="11" fill="#5b6472">33</text>
<circle cx="1775.2941176470588" cy="1354" r="5" fill="#5b6472"/>
<text x="1775.2941176470588" y="1380" text-anchor="middle" font-size="11" fill="#5b6472">34</text>
<circle cx="1880.0" cy="1322" r="5" fill="#5b6472"/>
<text x="1880.0" y="1296" text-anchor="middle" font-size="11" fill="#5b6472">35</text>
<circle cx="1880.0" cy="1354" r="5" fill="#5b6472"/>
<text x="1880.0" y="1380" text-anchor="middle" font-size="11" fill="#5b6472">36</text>
<rect x="88.0" y="1310" width="24" height="24" fill="none" stroke="#f59e0b" stroke-width="2"/>
<text x="122.0" y="1296" font-size="11" fill="#f59e0b">pin 1</text>
<text x="40" y="1466" font-size="20" font-weight="700" fill="#e5e7eb">P2</text>
<rect x="78" y="1424" width="1824" height="68" rx="8" fill="none" stroke="#5b6472" stroke-width="1.5"/>
<circle cx="100.0" cy="1442" r="9" fill="#c084fc" stroke="#05060a" stroke-width="1.5"/>
<text x="100.0" y="1416" text-anchor="middle" font-size="11" fill="#9aa3b2">1</text>
<circle cx="100.0" cy="1474" r="9" fill="#a3e635" stroke="#05060a" stroke-width="1.5"/>
<text x="100.0" y="1500" text-anchor="middle" font-size="11" fill="#9aa3b2">2</text>
<circle cx="204.70588235294116" cy="1442" r="9" fill="#c084fc" stroke="#05060a" stroke-width="1.5"/>
<text x="204.70588235294116" y="1416" text-anchor="middle" font-size="11" fill="#9aa3b2">3</text>
<circle cx="204.70588235294116" cy="1474" r="9" fill="#a3e635" stroke="#05060a" stroke-width="1.5"/>
<text x="204.70588235294116" y="1500" text-anchor="middle" font-size="11" fill="#9aa3b2">4</text>
<circle cx="309.4117647058823" cy="1442" r="5" fill="#5b6472"/>
<text x="309.4117647058823" y="1416" text-anchor="middle" font-size="11" fill="#5b6472">5</text>
<circle cx="309.4117647058823" cy="1474" r="9" fill="#a3e635" stroke="#05060a" stroke-width="1.5"/>
<text x="309.4117647058823" y="1500" text-anchor="middle" font-size="11" fill="#9aa3b2">6</text>
<circle cx="414.11764705882354" cy="1442" r="5" fill="#5b6472"/>
<text x="414.11764705882354" y="1416" text-anchor="middle" font-size="11" fill="#5b6472">7</text>
<circle cx="414.11764705882354" cy="1474" r="9" fill="#a3e635" stroke="#05060a" stroke-width="1.5"/>
<text x="414.11764705882354" y="1500" text-anchor="middle" font-size="11" fill="#9aa3b2">8</text>
<circle cx="518.8235294117646" cy="1442" r="5" fill="#5b6472"/>
<text x="518.8235294117646" y="1416" text-anchor="middle" font-size="11" fill="#5b6472">9</text>
<circle cx="518.8235294117646" cy="1474" r="5" fill="#5b6472"/>
<text x="518.8235294117646" y="1500" text-anchor="middle" font-size="11" fill="#5b6472">10</text>
<circle cx="623.5294117647059" cy="1442" r="5" fill="#5b6472"/>
<text x="623.5294117647059" y="1416" text-anchor="middle" font-size="11" fill="#5b6472">11</text>
<circle cx="623.5294117647059" cy="1474" r="9" fill="#9ca3af" stroke="#05060a" stroke-width="1.5"/>
<text x="623.5294117647059" y="1500" text-anchor="middle" font-size="11" fill="#9aa3b2">12</text>
<circle cx="728.2352941176471" cy="1442" r="5" fill="#5b6472"/>
<text x="728.2352941176471" y="1416" text-anchor="middle" font-size="11" fill="#5b6472">13</text>
<circle cx="728.2352941176471" cy="1474" r="5" fill="#5b6472"/>
<text x="728.2352941176471" y="1500" text-anchor="middle" font-size="11" fill="#5b6472">14</text>
<circle cx="832.9411764705882" cy="1442" r="9" fill="#6b7280" stroke="#05060a" stroke-width="1.5"/>
<text x="832.9411764705882" y="1416" text-anchor="middle" font-size="11" fill="#9aa3b2">15</text>
<circle cx="832.9411764705882" cy="1474" r="5" fill="#5b6472"/>
<text x="832.9411764705882" y="1500" text-anchor="middle" font-size="11" fill="#5b6472">16</text>
<circle cx="937.6470588235294" cy="1442" r="9" fill="#facc15" stroke="#05060a" stroke-width="1.5"/>
<text x="937.6470588235294" y="1416" text-anchor="middle" font-size="11" fill="#9aa3b2">17</text>
<circle cx="937.6470588235294" cy="1474" r="9" fill="#facc15" stroke="#05060a" stroke-width="1.5"/>
<text x="937.6470588235294" y="1500" text-anchor="middle" font-size="11" fill="#9aa3b2">18</text>
<circle cx="1042.3529411764707" cy="1442" r="5" fill="#5b6472"/>
<text x="1042.3529411764707" y="1416" text-anchor="middle" font-size="11" fill="#5b6472">19</text>
<circle cx="1042.3529411764707" cy="1474" r="5" fill="#5b6472"/>
<text x="1042.3529411764707" y="1500" text-anchor="middle" font-size="11" fill="#5b6472">20</text>
<circle cx="1147.0588235294117" cy="1442" r="5" fill="#5b6472"/>
<text x="1147.0588235294117" y="1416" text-anchor="middle" font-size="11" fill="#5b6472">21</text>
<circle cx="1147.0588235294117" cy="1474" r="9" fill="#facc15" stroke="#05060a" stroke-width="1.5"/>
<text x="1147.0588235294117" y="1500" text-anchor="middle" font-size="11" fill="#9aa3b2">22</text>
<circle cx="1251.764705882353" cy="1442" r="9" fill="#dc2626" stroke="#05060a" stroke-width="1.5"/>
<text x="1251.764705882353" y="1416" text-anchor="middle" font-size="11" fill="#9aa3b2">23</text>
<circle cx="1251.764705882353" cy="1474" r="9" fill="#facc15" stroke="#05060a" stroke-width="1.5"/>
<text x="1251.764705882353" y="1500" text-anchor="middle" font-size="11" fill="#9aa3b2">24</text>
<circle cx="1356.4705882352941" cy="1442" r="9" fill="#fb923c" stroke="#05060a" stroke-width="1.5"/>
<text x="1356.4705882352941" y="1416" text-anchor="middle" font-size="11" fill="#9aa3b2">25</text>
<circle cx="1356.4705882352941" cy="1474" r="5" fill="#5b6472"/>
<text x="1356.4705882352941" y="1500" text-anchor="middle" font-size="11" fill="#5b6472">26</text>
<circle cx="1461.1764705882354" cy="1442" r="5" fill="#5b6472"/>
<text x="1461.1764705882354" y="1416" text-anchor="middle" font-size="11" fill="#5b6472">27</text>
<circle cx="1461.1764705882354" cy="1474" r="9" fill="#facc15" stroke="#05060a" stroke-width="1.5"/>
<text x="1461.1764705882354" y="1500" text-anchor="middle" font-size="11" fill="#9aa3b2">28</text>
<circle cx="1565.8823529411764" cy="1442" r="9" fill="#fb923c" stroke="#05060a" stroke-width="1.5"/>
<text x="1565.8823529411764" y="1416" text-anchor="middle" font-size="11" fill="#9aa3b2">29</text>
<circle cx="1565.8823529411764" cy="1474" r="5" fill="#5b6472"/>
<text x="1565.8823529411764" y="1500" text-anchor="middle" font-size="11" fill="#5b6472">30</text>
<circle cx="1670.5882352941176" cy="1442" r="9" fill="#fb923c" stroke="#05060a" stroke-width="1.5"/>
<text x="1670.5882352941176" y="1416" text-anchor="middle" font-size="11" fill="#9aa3b2">31</text>
<circle cx="1670.5882352941176" cy="1474" r="5" fill="#5b6472"/>
<text x="1670.5882352941176" y="1500" text-anchor="middle" font-size="11" fill="#5b6472">32</text>
<circle cx="1775.2941176470588" cy="1442" r="5" fill="#5b6472"/>
<text x="1775.2941176470588" y="1416" text-anchor="middle" font-size="11" fill="#5b6472">33</text>
<circle cx="1775.2941176470588" cy="1474" r="5" fill="#5b6472"/>
<text x="1775.2941176470588" y="1500" text-anchor="middle" font-size="11" fill="#5b6472">34</text>
<circle cx="1880.0" cy="1442" r="5" fill="#5b6472"/>
<text x="1880.0" y="1416" text-anchor="middle" font-size="11" fill="#5b6472">35</text>
<circle cx="1880.0" cy="1474" r="5" fill="#5b6472"/>
<text x="1880.0" y="1500" text-anchor="middle" font-size="11" fill="#5b6472">36</text>
<rect x="88.0" y="1430" width="24" height="24" fill="none" stroke="#f59e0b" stroke-width="2"/>
<text x="122.0" y="1416" font-size="11" fill="#f59e0b">pin 1</text>
<line x1="40" y1="1552" x2="74" y2="1552" stroke="#c084fc" stroke-width="5"/>
<text x="84" y="1557" font-size="14" fill="#e5e7eb">I2S audio (McASP0)</text>
<line x1="259.6" y1="1552" x2="293.6" y2="1552" stroke="#22d3ee" stroke-width="5"/>
<text x="303.6" y="1557" font-size="14" fill="#e5e7eb">I2C2 (codec 0x1A, PN532 0x24)</text>
<line x1="569.4" y1="1552" x2="603.4" y2="1552" stroke="#fb923c" stroke-width="5"/>
<text x="613.4" y="1557" font-size="14" fill="#e5e7eb">SPI0 to display</text>
<line x1="764.4" y1="1552" x2="798.4" y2="1552" stroke="#facc15" stroke-width="5"/>
<text x="808.4" y="1557" font-size="14" fill="#e5e7eb">display control GPIO</text>
<line x1="1000.4" y1="1552" x2="1034.4" y2="1552" stroke="#a3e635" stroke-width="5"/>
<text x="1044.4" y="1557" font-size="14" fill="#e5e7eb">buttons (to GND, internal pull-up)</text>
<line x1="1351.1999999999998" y1="1552" x2="1385.1999999999998" y2="1552" stroke="#60a5fa" stroke-width="5"/>
<text x="1395.1999999999998" y="1557" font-size="14" fill="#e5e7eb">USB host (usb1) - data stick</text>
<line x1="1652.7999999999997" y1="1552" x2="1686.7999999999997" y2="1552" stroke="#dc2626" stroke-width="5"/>
<text x="1696.7999999999997" y="1557" font-size="14" fill="#e5e7eb">3.3 V</text>
<line x1="40" y1="1578" x2="74" y2="1578" stroke="#ec4899" stroke-width="5" stroke-dasharray="7,5"/>
<text x="84" y="1583" font-size="14" fill="#e5e7eb">5 V (dashed - check before wiring)</text>
<line x1="390.79999999999995" y1="1578" x2="424.79999999999995" y2="1578" stroke="#6b7280" stroke-width="5"/>
<text x="434.79999999999995" y="1583" font-size="14" fill="#e5e7eb">GND</text>
<line x1="487.4" y1="1578" x2="521.4" y2="1578" stroke="#9ca3af" stroke-width="5"/>
<text x="531.4" y="1583" font-size="14" fill="#e5e7eb">power button / reserved</text>
</svg>
